<svg xmlns="http://www.w3.org/2000/svg" width="16" height="16"><defs><linearGradient id="a" x1="0%" x2="100%" y1="0%" y2="100%"><stop offset="0%" style="stop-color:#3b82f6;stop-opacity:1"/><stop offset="100%" style="stop-color:#1e3a8a;stop-opacity:1"/></linearGradient></defs><circle cx="8" cy="8" r="7" fill="url(#a)" stroke="#1E40AF" stroke-width=".5"/><path fill="none" stroke="#FFF" stroke-linecap="round" stroke-linejoin="round" d="M4 6c0-1 1-2 2-2h1c1 0 2 1 2 2S8 8 7 8H6C5 8 4 7 4 6Zm5 0c0-1 1-2 2-2h1c1 0 2 1 2 2s-1 2-2 2h-1c-1 0-2-1-2-2Z"/></svg>