<svg xmlns="http://www.w3.org/2000/svg" width="32" height="32"><defs><linearGradient id="a" x1="0%" x2="100%" y1="0%" y2="100%"><stop offset="0%" style="stop-color:#3b82f6;stop-opacity:1"/><stop offset="100%" style="stop-color:#1e3a8a;stop-opacity:1"/></linearGradient><filter id="b" width="140%" height="140%" x="-20%" y="-20%"><feDropShadow dx=".5" dy=".5" flood-color="#000" flood-opacity=".2" stdDeviation=".5"/></filter></defs><circle cx="16" cy="16" r="14" fill="url(#a)" stroke="#1E40AF"/><path fill="none" stroke="#FFF" stroke-linecap="round" stroke-linejoin="round" stroke-width="2" d="M8 12c0-2 2-4 4-4h2c2 0 4 2 4 4s-2 4-4 4h-2c-2 0-4-2-4-4Zm10 0c0-2 2-4 4-4h2c2 0 4 2 4 4s-2 4-4 4h-2c-2 0-4-2-4-4Z" filter="url(#b)"/></svg>