<svg xmlns="http://www.w3.org/2000/svg" width="256" height="256" viewBox="0 0 48 48">
    <defs>
        <linearGradient id="a" x1="0%" x2="100%" y1="0%" y2="100%">
            <stop offset="0%" style="stop-color:#3b82f6;stop-opacity:1"/>
            <stop offset="100%" style="stop-color:#1e3a8a;stop-opacity:1"/>
        </linearGradient>
        <filter id="b" width="140%" height="140%" x="-20%" y="-20%">
            <feDropShadow dx="1" dy="1" flood-color="#000" flood-opacity=".3" stdDeviation="1"/>
        </filter>
    </defs>
    <circle cx="24" cy="24" r="22" fill="url(#a)" stroke="#1E40AF"/>
    <path fill="none" stroke="#FFF" stroke-linecap="round" stroke-linejoin="round" stroke-width="3"
          d="M12 18c0-3 3-6 6-6h4c3 0 6 3 6 6s-3 6-6 6h-4c-3 0-6-3-6-6Zm16 0c0-3 3-6 6-6h4c3 0 6 3 6 6s-3 6-6 6h-4c-3 0-6-3-6-6Z"
          filter="url(#b)"/>
</svg>
